<svg xmlns="http://www.w3.org/2000/svg" viewBox="0 0 1904 1134.9340107132668" width="1904" height="1134.9340107132668">
<defs>
  <marker id="arrowhead" markerWidth="7" markerHeight="5" refX="7" refY="2.5" markerUnits="userSpaceOnUse" orient="auto">
    <polygon points="0 0, 7 2.5, 0 5" fill="#94a3b8" />
  </marker>
</defs>
<rect x="384" y="12" width="1490" height="1068.9340107132668" fill="none" stroke="#94a3b8" stroke-width="1.5" stroke-dasharray="6,4" rx="8" />
<text x="392" y="26" font-size="11" fill="#64748b" font-family="sans-serif" font-weight="500">Inception / Module</text>
<rect x="949" y="40" width="360" height="193.70250336881628" rx="8" ry="8" fill="#dbeafe" stroke="#2563eb" stroke-width="2" />
<text x="1129" y="54" text-anchor="middle" font-size="11" fill="#1e293b" font-family="sans-serif" font-weight="500">Input shape=(192,28,28)</text>
<text x="1129" y="229.70250336881628" text-anchor="middle" font-size="8" fill="#64748b" font-family="monospace">(192,28,28)</text>
<rect x="394" y="304.55375505322445" width="360" height="100" rx="8" ry="8" fill="#dbeafe" stroke="#2563eb" stroke-width="2" />
<text x="574" y="318.55375505322445" text-anchor="middle" font-size="11" fill="#1e293b" font-family="sans-serif" font-weight="500">Conv2d f=64 k=1</text>
<text x="574" y="400.55375505322445" text-anchor="middle" font-size="8" fill="#64748b" font-family="monospace">(64,28,28)</text>
<rect x="764" y="290.17008328416273" width="360" height="128.76734353812338" rx="8" ry="8" fill="#dbeafe" stroke="#2563eb" stroke-width="2" />
<text x="944" y="304.17008328416273" text-anchor="middle" font-size="11" fill="#1e293b" font-family="sans-serif" font-weight="500">Conv2d f=96 k=1</text>
<text x="944" y="414.9374268222861" text-anchor="middle" font-size="8" fill="#64748b" font-family="monospace">(96,28,28)</text>
<rect x="1134" y="336.55375505322445" width="360" height="36" rx="8" ry="8" fill="#dbeafe" stroke="#2563eb" stroke-width="2" />
<text x="1314" y="350.55375505322445" text-anchor="middle" font-size="11" fill="#1e293b" font-family="sans-serif" font-weight="500">Conv2d f=16 k=1</text>
<text x="1314" y="368.55375505322445" text-anchor="middle" font-size="8" fill="#64748b" font-family="monospace">(16,28,28)</text>
<rect x="1504" y="257.7025033688163" width="360" height="193.70250336881628" rx="8" ry="8" fill="#dbeafe" stroke="#2563eb" stroke-width="2" />
<text x="1684" y="271.7025033688163" text-anchor="middle" font-size="11" fill="#1e293b" font-family="sans-serif" font-weight="500">MaxPool k=3 s=1 p=1</text>
<text x="1684" y="447.40500673763256" text-anchor="middle" font-size="8" fill="#64748b" font-family="monospace">(192,28,28)</text>
<rect x="394" y="492.6598407335716" width="360" height="28" rx="8" ry="8" fill="#dcfce7" stroke="#16a34a" stroke-width="2" />
<text x="574" y="506.6598407335716" text-anchor="middle" font-size="11" fill="#1e293b" font-family="sans-serif" font-weight="500">ReLU</text>
<text x="574" y="516.6598407335716" text-anchor="middle" font-size="8" fill="#64748b" font-family="monospace">(64,28,28)</text>
<rect x="764" y="492.6598407335716" width="360" height="28" rx="8" ry="8" fill="#dcfce7" stroke="#16a34a" stroke-width="2" />
<text x="944" y="506.6598407335716" text-anchor="middle" font-size="11" fill="#1e293b" font-family="sans-serif" font-weight="500">ReLU</text>
<text x="944" y="516.6598407335716" text-anchor="middle" font-size="8" fill="#64748b" font-family="monospace">(96,28,28)</text>
<rect x="1134" y="492.6598407335716" width="360" height="28" rx="8" ry="8" fill="#dcfce7" stroke="#16a34a" stroke-width="2" />
<text x="1314" y="506.6598407335716" text-anchor="middle" font-size="11" fill="#1e293b" font-family="sans-serif" font-weight="500">ReLU</text>
<text x="1314" y="516.6598407335716" text-anchor="middle" font-size="8" fill="#64748b" font-family="monospace">(16,28,28)</text>
<rect x="1504" y="475.40500673763256" width="360" height="62.50966799187809" rx="8" ry="8" fill="#dbeafe" stroke="#2563eb" stroke-width="2" />
<text x="1684" y="489.40500673763256" text-anchor="middle" font-size="11" fill="#1e293b" font-family="sans-serif" font-weight="500">Conv2d f=32 k=1</text>
<text x="1684" y="533.9146747295107" text-anchor="middle" font-size="8" fill="#64748b" font-family="monospace">(32,28,28)</text>
<rect x="579" y="561.9146747295107" width="360" height="153.01933598375618" rx="8" ry="8" fill="#dbeafe" stroke="#2563eb" stroke-width="2" />
<text x="759" y="575.9146747295107" text-anchor="middle" font-size="11" fill="#1e293b" font-family="sans-serif" font-weight="500">Conv2d f=128 k=3 p=1</text>
<text x="759" y="710.9340107132668" text-anchor="middle" font-size="8" fill="#64748b" font-family="monospace">(128,28,28)</text>
<rect x="949" y="607.1695087254498" width="360" height="62.50966799187809" rx="8" ry="8" fill="#dbeafe" stroke="#2563eb" stroke-width="2" />
<text x="1129" y="621.1695087254498" text-anchor="middle" font-size="11" fill="#1e293b" font-family="sans-serif" font-weight="500">Conv2d f=32 k=5 p=2</text>
<text x="1129" y="665.6791767173279" text-anchor="middle" font-size="8" fill="#64748b" font-family="monospace">(32,28,28)</text>
<rect x="1319" y="624.4243427213888" width="360" height="28" rx="8" ry="8" fill="#dcfce7" stroke="#16a34a" stroke-width="2" />
<text x="1499" y="638.4243427213888" text-anchor="middle" font-size="11" fill="#1e293b" font-family="sans-serif" font-weight="500">ReLU</text>
<text x="1499" y="648.4243427213888" text-anchor="middle" font-size="8" fill="#64748b" font-family="monospace">(32,28,28)</text>
<rect x="764" y="738.9340107132668" width="360" height="28" rx="8" ry="8" fill="#dcfce7" stroke="#16a34a" stroke-width="2" />
<text x="944" y="752.9340107132668" text-anchor="middle" font-size="11" fill="#1e293b" font-family="sans-serif" font-weight="500">ReLU</text>
<text x="944" y="762.9340107132668" text-anchor="middle" font-size="8" fill="#64748b" font-family="monospace">(128,28,28)</text>
<rect x="1134" y="738.9340107132668" width="360" height="28" rx="8" ry="8" fill="#dcfce7" stroke="#16a34a" stroke-width="2" />
<text x="1314" y="752.9340107132668" text-anchor="middle" font-size="11" fill="#1e293b" font-family="sans-serif" font-weight="500">ReLU</text>
<text x="1314" y="762.9340107132668" text-anchor="middle" font-size="8" fill="#64748b" font-family="monospace">(32,28,28)</text>
<rect x="949" y="790.9340107132668" width="360" height="28" rx="8" ry="8" fill="#ede9fe" stroke="#7c3aed" stroke-width="2" />
<text x="1129" y="804.9340107132668" text-anchor="middle" font-size="11" fill="#1e293b" font-family="sans-serif" font-weight="500">Concat axis=0</text>
<text x="1129" y="814.9340107132668" text-anchor="middle" font-size="8" fill="#64748b" font-family="monospace">(256,28,28)</text>
<rect x="949" y="842.9340107132668" width="360" height="228" rx="8" ry="8" fill="#dbeafe" stroke="#2563eb" stroke-width="2" />
<text x="1129" y="856.9340107132668" text-anchor="middle" font-size="11" fill="#1e293b" font-family="sans-serif" font-weight="500">Output</text>
<text x="1129" y="1066.9340107132668" text-anchor="middle" font-size="8" fill="#64748b" font-family="monospace">(256,28,28)</text>
<path d="M 1039 233.70250336881628 L 1039 269.12812921102034 L 574 269.12812921102034 L 574 304.55375505322445" stroke="#64748b" stroke-width="1.5" fill="none" marker-end="url(#arrowhead)" />
<text x="810.5" y="273.12812921102034" font-size="8" fill="#94a3b8" font-family="monospace">b1 (192,28,28)</text>
<path d="M 574 404.55375505322445 L 574 492.6598407335716" stroke="#64748b" stroke-width="1.5" fill="none" marker-end="url(#arrowhead)" />
<text x="578" y="452.60679789339804" font-size="8" fill="#94a3b8" font-family="monospace">(64,28,28)</text>
<path d="M 1099 233.70250336881628 L 1099 261.9362933264895 L 944 261.9362933264895 L 944 290.17008328416273" stroke="#64748b" stroke-width="1.5" fill="none" marker-end="url(#arrowhead)" />
<text x="1025.5" y="265.9362933264895" font-size="8" fill="#94a3b8" font-family="monospace">b2 (192,28,28)</text>
<path d="M 944 418.9374268222861 L 944 492.6598407335716" stroke="#64748b" stroke-width="1.5" fill="none" marker-end="url(#arrowhead)" />
<text x="948" y="459.7986337779289" font-size="8" fill="#94a3b8" font-family="monospace">(96,28,28)</text>
<path d="M 944 520.6598407335716 L 944 541.2872577315411 L 759 541.2872577315411 L 759 561.9146747295107" stroke="#64748b" stroke-width="1.5" fill="none" marker-end="url(#arrowhead)" />
<text x="855.5" y="545.2872577315411" font-size="8" fill="#94a3b8" font-family="monospace">(96,28,28)</text>
<path d="M 759 714.9340107132668 L 759 726.9340107132668 L 944 726.9340107132668 L 944 738.9340107132668" stroke="#64748b" stroke-width="1.5" fill="none" marker-end="url(#arrowhead)" />
<text x="855.5" y="730.9340107132668" font-size="8" fill="#94a3b8" font-family="monospace">(128,28,28)</text>
<path d="M 1159 233.70250336881628 L 1159 285.12812921102034 L 1314 285.12812921102034 L 1314 336.55375505322445" stroke="#64748b" stroke-width="1.5" fill="none" marker-end="url(#arrowhead)" />
<text x="1240.5" y="289.12812921102034" font-size="8" fill="#94a3b8" font-family="monospace">b3 (192,28,28)</text>
<path d="M 1314 372.55375505322445 L 1314 492.6598407335716" stroke="#64748b" stroke-width="1.5" fill="none" marker-end="url(#arrowhead)" />
<text x="1318" y="436.60679789339804" font-size="8" fill="#94a3b8" font-family="monospace">(16,28,28)</text>
<path d="M 1314 520.6598407335716 L 1314 563.9146747295107 L 1129 563.9146747295107 L 1129 607.1695087254498" stroke="#64748b" stroke-width="1.5" fill="none" marker-end="url(#arrowhead)" />
<text x="1225.5" y="567.9146747295107" font-size="8" fill="#94a3b8" font-family="monospace">(16,28,28)</text>
<path d="M 1129 669.6791767173279 L 1129 704.3065937152974 L 1314 704.3065937152974 L 1314 738.9340107132668" stroke="#64748b" stroke-width="1.5" fill="none" marker-end="url(#arrowhead)" />
<text x="1225.5" y="708.3065937152974" font-size="8" fill="#94a3b8" font-family="monospace">(32,28,28)</text>
<path d="M 1219 233.70250336881628 L 1219 245.70250336881628 L 1684 245.70250336881628 L 1684 257.7025033688163" stroke="#64748b" stroke-width="1.5" fill="none" marker-end="url(#arrowhead)" />
<text x="1455.5" y="249.70250336881628" font-size="8" fill="#94a3b8" font-family="monospace">b4 (192,28,28)</text>
<path d="M 1684 451.40500673763256 L 1684 475.40500673763256" stroke="#64748b" stroke-width="1.5" fill="none" marker-end="url(#arrowhead)" />
<text x="1688" y="467.40500673763256" font-size="8" fill="#94a3b8" font-family="monospace">(192,28,28)</text>
<path d="M 1684 537.9146747295106 L 1684 581.1695087254498 L 1499 581.1695087254498 L 1499 624.4243427213888" stroke="#64748b" stroke-width="1.5" fill="none" marker-end="url(#arrowhead)" />
<text x="1595.5" y="585.1695087254498" font-size="8" fill="#94a3b8" font-family="monospace">(32,28,28)</text>
<path d="M 394 506.6598407335716 C 40 506.6598407335716, 595 804.9340107132668, 949 804.9340107132668" stroke="#9333ea" stroke-width="1.5" fill="none" stroke-dasharray="5,3" marker-end="url(#arrowhead)" />
<text x="334" y="494.6598407335716" font-size="9" fill="#9333ea" text-anchor="end" font-family="monospace">→ out1 (64,28,28)</text>
<path d="M 944 766.9340107132668 L 944 768.9340107132668 L 1039 768.9340107132668 L 1039 790.9340107132668" stroke="#64748b" stroke-width="1.5" fill="none" marker-end="url(#arrowhead)" />
<text x="995.5" y="772.9340107132668" font-size="8" fill="#94a3b8" font-family="monospace">out2 (128,28,28)</text>
<path d="M 1314 766.9340107132668 L 1314 778.9340107132668 L 1129 778.9340107132668 L 1129 790.9340107132668" stroke="#64748b" stroke-width="1.5" fill="none" marker-end="url(#arrowhead)" />
<text x="1225.5" y="782.9340107132668" font-size="8" fill="#94a3b8" font-family="monospace">out3 (32,28,28)</text>
<path d="M 1499 652.4243427213888 L 1499 731.6791767173279 L 1219 731.6791767173279 L 1219 790.9340107132668" stroke="#64748b" stroke-width="1.5" fill="none" marker-end="url(#arrowhead)" />
<text x="1363" y="735.6791767173279" font-size="8" fill="#94a3b8" font-family="monospace">out4 (32,28,28)</text>
<path d="M 1129 818.9340107132668 L 1129 842.9340107132668" stroke="#64748b" stroke-width="1.5" fill="none" marker-end="url(#arrowhead)" />
<text x="1133" y="834.9340107132668" font-size="8" fill="#94a3b8" font-family="monospace">(256,28,28)</text>
<text x="1540" y="1128.9340107132668" text-anchor="end" font-size="10" fill="#94a3b8" font-family="sans-serif">Total params: 163.7K</text>
</svg>